<?xml version="1.0" encoding="iso-8859-1"?>
<!-- Generator: Adobe Illustrator 18.0.0, SVG Export Plug-In . SVG Version: 6.00 Build 0)  -->
<!DOCTYPE svg PUBLIC "-//W3C//DTD SVG 1.1//EN" "http://www.w3.org/Graphics/SVG/1.1/DTD/svg11.dtd">
<svg version="1.1" id="Capa_1" xmlns="http://www.w3.org/2000/svg" xmlns:xlink="http://www.w3.org/1999/xlink" x="0px" y="0px"
	 viewBox="0 0 53.43 53.43" style="enable-background:new 0 0 53.43 53.43;" xml:space="preserve">
<g>
	<path d="M24.056,5.986c0.066-1.096-0.741-2.047-1.8-2.121c-0.512-0.046-0.996,0.131-1.383,0.469c-0.398,0.35-0.646,0.859-0.68,1.4
		c-0.066,1.096,0.741,2.047,1.8,2.121c0.045,0.004,0.09,0.005,0.134,0.005c0.459,0,0.898-0.166,1.25-0.476
		C23.777,7.034,24.024,6.525,24.056,5.986z M22.055,5.885l0.048-0.018l0.955,0.058L22.055,5.885z"/>
	<path d="M52.382,27.246l-3.22-6.326l1.331-0.875l0.183-0.154c0.806-0.867,1.198-2.051,1.077-3.245
		c-0.116-1.141-0.695-2.164-1.59-2.812l-5.763-4.578c0.037-0.157,0.064-0.282,0.08-0.359c0.43-1.207,0.327-2.534-0.285-3.655
		c-0.586-1.071-1.582-1.825-2.733-2.07L30.193,1.396c-0.436-0.092-0.885-0.101-1.338-0.032c-0.019-0.014-0.035-0.03-0.054-0.043
		c-3.461-2.429-9.134-0.778-9.374-0.705L6.863,6.683C4.304,5.402,2.659,3.484,2.78,1.495C2.813,0.945,2.394,0.47,1.842,0.437
		C1.311,0.429,0.817,0.824,0.783,1.374C0.631,3.882,2.181,6.201,4.775,7.839C4.52,8.117,4.348,8.47,4.315,8.869
		c-0.054,0.629,0.216,1.22,0.722,1.58c2.688,1.914,9.496,6.19,16.632,6.19c0.375,0,0.751-0.012,1.127-0.036
		c0.222-0.014,0.432-0.043,0.646-0.067l0.078,0.083c0.078,0.083,0.156,0.164,0.241,0.241l3.305,4.041
		c-0.65,0.457-1.438,0.731-2.292,0.731c-0.553,0-1,0.447-1,1s0.447,1,1,1c1.464,0,2.805-0.528,3.848-1.402
		c0.87,0.51,1.858,0.79,2.857,0.79c0.084,0,0.169-0.01,0.253-0.014c-1.081,1.584-2.9,2.626-4.958,2.626c-0.553,0-1,0.447-1,1
		s0.447,1,1,1c2.822,0,5.302-1.472,6.726-3.685l0.569,1.863l0.068,0.169c0.187,0.36,0.435,0.663,0.707,0.938l-0.398,1.664
		l-0.025,0.177c-0.063,1.137,0.408,2.224,1.262,2.909c0.25,0.201,0.525,0.351,0.811,0.468l-0.677,0.785l-0.103,0.145
		c-0.511,0.862-0.589,1.912-0.209,2.807c0.017,0.039,0.043,0.07,0.061,0.108c-1.734,0.495-3.486,0.835-4.745,0.906
		c-1.342,0.073-2.549,1.03-2.934,2.326c-0.295,0.989,0.001,1.955,0.772,2.521c0.861,0.631,2.277,0.515,4.507,0.247
		c0.835-0.1,1.696-0.211,2.188-0.17c0.143,0.01,0.252,0.054,0.286,0.116s0.034,0.207-0.077,0.41
		c-0.151,0.278-0.356,0.623-0.589,1.017c-1.408,2.379-3.537,5.975-2.782,8.503c0.27,0.902,1.055,1.504,2.051,1.569
		c0.065,0.004,0.13,0.006,0.195,0.006c1.267,0,2.49-0.796,3.024-1.99c1.042-2.332,4.035-5.869,7.203-9.613l0.655-0.775
		c0.072-0.085,0.275-0.302,0.545-0.59c0.224-0.24,0.494-0.531,0.772-0.832c0.005,0,0.01,0.002,0.014,0.002
		c0.626,0,1.251-0.2,1.782-0.582c0.758-0.544,1.241-1.386,1.328-2.31l0.006-0.066l-0.177-4.492l0.193-0.002l0.261-0.037
		c0.971-0.272,1.787-0.966,2.241-1.903C52.744,29.288,52.78,28.198,52.382,27.246z M48.937,15.415l0.042,0.031
		c0.438,0.313,0.725,0.824,0.783,1.402c0.06,0.585-0.114,1.161-0.479,1.599l-10.38,6.83l-0.183,0.154
		c-0.135,0.145-0.289,0.254-0.449,0.346c-0.038,0.022-0.077,0.042-0.116,0.061c-0.154,0.073-0.313,0.129-0.477,0.154
		c-0.01,0.001-0.02,0.006-0.031,0.008c-0.183,0.024-0.369,0.014-0.55-0.025c-0.021-0.004-0.042-0.011-0.063-0.016
		c-0.18-0.046-0.357-0.116-0.521-0.226l-0.058-0.039c-0.199-0.146-0.373-0.335-0.505-0.565l-0.927-3.037
		c0.116-0.052,0.223-0.113,0.336-0.168c4.95-2.386,7.383-7.495,8.436-10.592L48.937,15.415z M6.538,9.061l0.318-0.154
		c1.654,0.688,3.56,1.147,5.626,1.292c0.023,0.001,0.047,0.002,0.07,0.002c0.521,0,0.96-0.403,0.997-0.931
		c0.038-0.551-0.378-1.028-0.929-1.067c-1.115-0.078-2.184-0.269-3.185-0.544L20.072,2.51c1.443-0.412,5.398-1.082,7.578,0.447
		c0.177,0.124,0.319,0.278,0.468,0.426c0.108,0.108,0.215,0.216,0.308,0.336c0.093,0.121,0.172,0.256,0.251,0.39
		c0.071,0.121,0.147,0.238,0.207,0.37c0.079,0.177,0.139,0.375,0.197,0.572c0.034,0.115,0.079,0.22,0.106,0.342
		c0.074,0.334,0.126,0.69,0.149,1.078l0.013,0.112c0,0.002,0.003,0.017,0.006,0.042c0.002,0.012,0.004,0.032,0.006,0.049
		c0.002,0.017,0.004,0.032,0.007,0.054c0.016,0.135,0.038,0.357,0.049,0.644l0,0.001c0.003,0.094,0.006,0.195,0.006,0.302
		c0,0.003,0,0.006,0,0.006c0,0.106-0.001,0.215-0.004,0.328c0,0.009,0,0.017-0.001,0.026c-0.004,0.111-0.01,0.227-0.018,0.347
		c-0.001,0.012-0.001,0.023-0.002,0.035c-0.009,0.118-0.02,0.239-0.034,0.363c-0.002,0.016-0.003,0.031-0.005,0.047
		c-0.015,0.122-0.033,0.247-0.053,0.374c-0.003,0.019-0.006,0.038-0.009,0.058c-0.021,0.125-0.046,0.251-0.075,0.379
		c-0.005,0.024-0.01,0.048-0.016,0.072c-0.029,0.125-0.062,0.25-0.098,0.377c-0.008,0.028-0.016,0.056-0.025,0.084
		c-0.037,0.123-0.078,0.247-0.122,0.37c-0.012,0.033-0.024,0.065-0.036,0.098c-0.045,0.119-0.094,0.238-0.147,0.357
		c-0.017,0.038-0.035,0.075-0.052,0.113c-0.053,0.113-0.11,0.226-0.172,0.337c-0.024,0.043-0.049,0.085-0.074,0.128
		c-0.061,0.105-0.126,0.21-0.195,0.313c-0.076,0.114-0.153,0.227-0.24,0.337c-1.122,1.423-2.933,2.225-5.382,2.384
		C16.066,15.059,9.409,11.053,6.538,9.061z M29.941,20.667c0.526-0.892,0.833-1.927,0.833-3.035c0-0.553-0.447-1-1-1s-1,0.447-1,1
		c0,0.615-0.151,1.19-0.399,1.711l-2.368-2.894c1.775-0.661,3.094-1.81,3.93-3.429c0.004-0.006,0.007-0.012,0.011-0.019
		c0.096-0.143,0.183-0.288,0.268-0.433c0.02-0.034,0.042-0.068,0.061-0.103c0.082-0.147,0.157-0.295,0.228-0.444
		c0.016-0.034,0.034-0.067,0.049-0.101c0.07-0.15,0.133-0.3,0.192-0.451c0.013-0.032,0.026-0.065,0.039-0.097
		c0.058-0.152,0.11-0.302,0.158-0.453c0.01-0.031,0.02-0.062,0.03-0.093c0.047-0.152,0.089-0.302,0.127-0.453
		c0.007-0.028,0.015-0.057,0.022-0.085c0.037-0.152,0.07-0.301,0.099-0.449c0.005-0.025,0.01-0.05,0.015-0.075
		c0.028-0.15,0.053-0.297,0.074-0.442c0.003-0.022,0.006-0.043,0.009-0.064c0.02-0.146,0.037-0.29,0.051-0.43
		c0.002-0.018,0.003-0.036,0.005-0.054c0.013-0.142,0.024-0.28,0.031-0.414c0.001-0.014,0.001-0.027,0.002-0.041
		c0.007-0.135,0.012-0.265,0.014-0.391c0-0.012,0-0.024,0-0.036c0.002-0.126,0.002-0.247,0-0.362l0-0.014
		c-0.002-0.119-0.005-0.231-0.011-0.336l0-0.01c-0.021-0.428-0.061-0.737-0.08-0.865c-0.001-0.024-0.006-0.045-0.007-0.069
		c-0.017-0.245-0.041-0.485-0.075-0.716c-0.024-0.159-0.059-0.31-0.091-0.463c-0.019-0.088-0.032-0.18-0.053-0.266
		c-0.049-0.199-0.109-0.389-0.173-0.576c-0.011-0.033-0.019-0.068-0.031-0.1c-0.073-0.206-0.158-0.403-0.25-0.595
		c-0.005-0.01-0.008-0.02-0.012-0.03l10.431,1.645c0.579,0.13,1.064,0.508,1.37,1.067c0.347,0.634,0.397,1.389,0.14,2.071
		l-0.047,0.165c-0.006,0.035-0.244,1.21-0.851,2.832c-0.033,0.089-0.066,0.177-0.102,0.27c-0.032,0.083-0.066,0.167-0.1,0.252
		c-0.069,0.171-0.141,0.346-0.219,0.525c-0.01,0.022-0.019,0.044-0.029,0.067c-1.048,2.401-2.87,5.439-5.83,7.251
		c-0.011,0.007-0.023,0.014-0.035,0.021c-0.196,0.119-0.405,0.225-0.611,0.333c0.005-0.119,0.018-0.236,0.018-0.356
		c0-0.553-0.447-1-1-1s-1,0.447-1,1c0,0.407-0.042,0.805-0.119,1.19c-0.14,0.038-0.278,0.08-0.422,0.113
		C31.463,21.111,30.656,21.002,29.941,20.667z M43.793,39.76l-0.655,0.774c-3.262,3.855-6.344,7.498-7.502,10.089
		c-0.241,0.539-0.822,0.851-1.264,0.805c-0.226-0.015-0.25-0.097-0.265-0.146c-0.504-1.69,1.507-5.087,2.587-6.912
		c0.247-0.416,0.463-0.782,0.624-1.076c0.429-0.786,0.456-1.636,0.075-2.331c-0.37-0.674-1.064-1.093-1.904-1.15
		c-0.109-0.007-0.224-0.011-0.344-0.011c-0.629,0-1.404,0.094-2.218,0.191c-0.942,0.112-2.696,0.325-3.086,0.126
		c-0.028-0.021-0.114-0.084-0.038-0.339c0.124-0.419,0.58-0.87,1.126-0.9c1.736-0.096,4.179-0.614,6.45-1.365
		c0.03,0.009,0.062,0.018,0.094,0.024l6.866,1.625C44.07,39.454,43.868,39.671,43.793,39.76z M47.764,36.61
		c-0.046,0.325-0.225,0.62-0.496,0.815c-0.144,0.103-0.441,0.261-0.801,0.185l-0.03-0.006l-8.493-2.008
		c-0.033-0.011-0.063-0.025-0.151-0.063l-0.114-0.048c-0.187-0.118-0.287-0.286-0.334-0.395c-0.125-0.296-0.105-0.634,0.052-0.94
		l1.605-1.862l8.588-0.086L47.764,36.61z M50.485,29.367c-0.187,0.385-0.5,0.676-0.871,0.813l-0.351,0.003l0,0l-6.558,0.066
		l-4.371,0.043l-0.003,0l-0.251,0.002l-0.033,0.039c-0.399,0.104-0.794,0.026-1.111-0.227c-0.337-0.271-0.524-0.69-0.52-1.159
		l0.243-1.019c0.055,0.012,0.11,0.016,0.165,0.025c0.041,0.007,0.077,0.025,0.118,0.031c0.054,0.007,0.107,0.006,0.161,0.011
		c0.011,0.001,0.021,0.001,0.032,0.002c0.102,0.009,0.204,0.021,0.304,0.021c0.038,0,0.075-0.01,0.113-0.011
		c0.165-0.006,0.33-0.022,0.493-0.05c0.109-0.018,0.214-0.046,0.32-0.074c0.097-0.025,0.192-0.056,0.287-0.09
		c0.111-0.039,0.221-0.079,0.328-0.13c0.151-0.07,0.298-0.151,0.441-0.242c0.06-0.039,0.118-0.079,0.177-0.121
		c0.174-0.124,0.342-0.259,0.497-0.415l7.387-4.86l3.067,6.021C50.713,28.464,50.69,28.944,50.485,29.367z"/>
</g>
<g>
</g>
<g>
</g>
<g>
</g>
<g>
</g>
<g>
</g>
<g>
</g>
<g>
</g>
<g>
</g>
<g>
</g>
<g>
</g>
<g>
</g>
<g>
</g>
<g>
</g>
<g>
</g>
<g>
</g>
</svg>
